HIERARCHY
ROOT Hips
{
  OFFSET 5.84602e-005 68.8428 3.50346
  CHANNELS 6 Xposition Yposition Zposition Zrotation Xrotation Yrotation
  JOINT Spine
  {
    OFFSET 0 8.597 -4.6522
    CHANNELS 3 Zrotation Xrotation Yrotation
    JOINT Spine1
    {
      OFFSET 0 7.8454 0.4098
      CHANNELS 3 Zrotation Xrotation Yrotation
      JOINT Spine2
      {
        OFFSET 0 9.7078 -2.1609
        CHANNELS 3 Zrotation Xrotation Yrotation
        JOINT Neck
        {
          OFFSET 0 21.8761 -0.4549
          CHANNELS 3 Zrotation Xrotation Yrotation
          JOINT Head
          {
            OFFSET 0 12.3537 3.3602
            CHANNELS 3 Zrotation Xrotation Yrotation
            End Site
            {
              OFFSET 0.0001 18.9506 0.5657
            }
          }
        }
        JOINT LeftShoulder
        {
          OFFSET 2.2086 21.1115 7.2329
          CHANNELS 3 Zrotation Xrotation Yrotation
          JOINT LeftArm
          {
            OFFSET 13.1193 3.0282 -4.8998
            CHANNELS 3 Zrotation Xrotation Yrotation
            JOINT LeftForeArm
            {
              OFFSET 27.4081 -0.0973053 -0.2375
              CHANNELS 3 Zrotation Xrotation Yrotation
              JOINT LeftHand
              {
                OFFSET 22.8641 0.0662994 -0.1369
                CHANNELS 3 Zrotation Xrotation Yrotation
                JOINT LeftHandIndex1
                {
                  OFFSET 8.8614 0.775009 2.4612
                  CHANNELS 3 Zrotation Xrotation Yrotation
                  JOINT LeftHandIndex2
                  {
                    OFFSET 3.3146 -0.808304 0.5841
                    CHANNELS 3 Zrotation Xrotation Yrotation
                    JOINT LeftHandIndex3
                    {
                      OFFSET 2.2628 -0.552002 0.3989
                      CHANNELS 3 Zrotation Xrotation Yrotation
                      End Site
                      {
                        OFFSET 1.6102 -0.4807 0.2612
                      }
                    }
                  }
                }
                JOINT LeftHandMiddle1
                {
                  OFFSET 8.9937 0.895004 0.2143
                  CHANNELS 3 Zrotation Xrotation Yrotation
                  JOINT LeftHandMiddle2
                  {
                    OFFSET 4.0984 0.0113983 -0.0242
                    CHANNELS 3 Zrotation Xrotation Yrotation
                    JOINT LeftHandMiddle3
                    {
                      OFFSET 2.2716 0.00689697 -0.0138001
                      CHANNELS 3 Zrotation Xrotation Yrotation
                      End Site
                      {
                        OFFSET 2.0404 -0.1441 0.0027
                      }
                    }
                  }
                }
                JOINT LeftHandRing1
                {
                  OFFSET 8.5234 0.597198 -2.0164
                  CHANNELS 3 Zrotation Xrotation Yrotation
                  JOINT LeftHandRing2
                  {
                    OFFSET 3.7188 -0.188293 -0.2328
                    CHANNELS 3 Zrotation Xrotation Yrotation
                    JOINT LeftHandRing3
                    {
                      OFFSET 2.1191 -0.106598 -0.1332
                      CHANNELS 3 Zrotation Xrotation Yrotation
                      End Site
                      {
                        OFFSET 1.8737 -0.2304 -0.0886
                      }
                    }
                  }
                }
                JOINT LeftHandPinky1
                {
                  OFFSET 7.9094 -0.601089 -3.4825
                  CHANNELS 3 Zrotation Xrotation Yrotation
                  JOINT LeftHandPinky2
                  {
                    OFFSET 2.2874 -0.477005 -0.6314
                    CHANNELS 3 Zrotation Xrotation Yrotation
                    JOINT LeftHandPinky3
                    {
                      OFFSET 1.6774 -0.349396 -0.4633
                      CHANNELS 3 Zrotation Xrotation Yrotation
                      End Site
                      {
                        OFFSET 1.4888 -0.4091 -0.3416
                      }
                    }
                  }
                }
                JOINT LeftHandThumb1
                {
                  OFFSET 1.833 -1.3875 1.3896
                  CHANNELS 3 Zrotation Xrotation Yrotation
                  JOINT LeftHandThumb2
                  {
                    OFFSET 3.4129 -1.121 2.5732
                    CHANNELS 3 Zrotation Xrotation Yrotation
                    JOINT LeftHandThumb3
                    {
                      OFFSET 2.2474 -0.804199 1.6192
                      CHANNELS 3 Zrotation Xrotation Yrotation
                      End Site
                      {
                        OFFSET 1.6527 -0.5689 1.1317
                      }
                    }
                  }
                }
              }
            }
          }
        }
        JOINT RightShoulder
        {
          OFFSET -2.2086 21.1115 7.2329
          CHANNELS 3 Zrotation Xrotation Yrotation
          JOINT RightArm
          {
            OFFSET -13.1216 3.0287 -4.9007
            CHANNELS 3 Zrotation Xrotation Yrotation
            JOINT RightForeArm
            {
              OFFSET -27.4081 -0.0973053 -0.2375
              CHANNELS 3 Zrotation Xrotation Yrotation
              JOINT RightHand
              {
                OFFSET -22.8641 0.0664063 -0.1369
                CHANNELS 3 Zrotation Xrotation Yrotation
                JOINT RightHandIndex1
                {
                  OFFSET -8.8614 0.774994 2.4612
                  CHANNELS 3 Zrotation Xrotation Yrotation
                  JOINT RightHandIndex2
                  {
                    OFFSET -3.3146 -0.808304 0.5841
                    CHANNELS 3 Zrotation Xrotation Yrotation
                    JOINT RightHandIndex3
                    {
                      OFFSET -2.2628 -0.552002 0.3989
                      CHANNELS 3 Zrotation Xrotation Yrotation
                      End Site
                      {
                        OFFSET -1.6102 -0.4807 0.2612
                      }
                    }
                  }
                }
                JOINT RightHandMiddle1
                {
                  OFFSET -8.9937 0.894989 0.2143
                  CHANNELS 3 Zrotation Xrotation Yrotation
                  JOINT RightHandMiddle2
                  {
                    OFFSET -4.0984 0.0113983 -0.0242
                    CHANNELS 3 Zrotation Xrotation Yrotation
                    JOINT RightHandMiddle3
                    {
                      OFFSET -2.2716 0.00691223 -0.0138001
                      CHANNELS 3 Zrotation Xrotation Yrotation
                      End Site
                      {
                        OFFSET -2.0404 -0.1441 0.0027
                      }
                    }
                  }
                }
                JOINT RightHandRing1
                {
                  OFFSET -8.5234 0.597198 -2.0164
                  CHANNELS 3 Zrotation Xrotation Yrotation
                  JOINT RightHandRing2
                  {
                    OFFSET -3.7188 -0.188309 -0.2328
                    CHANNELS 3 Zrotation Xrotation Yrotation
                    JOINT RightHandRing3
                    {
                      OFFSET -2.1191 -0.106598 -0.1332
                      CHANNELS 3 Zrotation Xrotation Yrotation
                      End Site
                      {
                        OFFSET -1.8737 -0.2304 -0.0886
                      }
                    }
                  }
                }
                JOINT RightHandPinky1
                {
                  OFFSET -7.9094 -0.601105 -3.4825
                  CHANNELS 3 Zrotation Xrotation Yrotation
                  JOINT RightHandPinky2
                  {
                    OFFSET -2.2874 -0.477005 -0.6314
                    CHANNELS 3 Zrotation Xrotation Yrotation
                    JOINT RightHandPinky3
                    {
                      OFFSET -1.6774 -0.349396 -0.4633
                      CHANNELS 3 Zrotation Xrotation Yrotation
                      End Site
                      {
                        OFFSET -1.4888 -0.4091 -0.3416
                      }
                    }
                  }
                }
                JOINT RightHandThumb1
                {
                  OFFSET -1.833 -1.38751 1.3896
                  CHANNELS 3 Zrotation Xrotation Yrotation
                  JOINT RightHandThumb2
                  {
                    OFFSET -3.41299 -1.12099 2.5732
                    CHANNELS 3 Zrotation Xrotation Yrotation
                    JOINT RightHandThumb3
                    {
                      OFFSET -2.24741 -0.804108 1.6192
                      CHANNELS 3 Zrotation Xrotation Yrotation
                      End Site
                      {
                        OFFSET -1.6527 -0.5689 1.1317
                      }
                    }
                  }
                }
              }
            }
          }
        }
      }
    }
  }
  JOINT RightUpLeg
  {
    OFFSET -9.1966 3.8861 -0.7581
    CHANNELS 3 Zrotation Xrotation Yrotation
    JOINT RightLeg
    {
      OFFSET -0.7359 -41.0265 0
      CHANNELS 3 Zrotation Xrotation Yrotation
      JOINT RightFoot
      {
        OFFSET 0 -40.2855 0
        CHANNELS 3 Zrotation Xrotation Yrotation
        JOINT RightToeBase
        {
          OFFSET 0 -5.6122 11.7359
          CHANNELS 3 Zrotation Xrotation Yrotation
          End Site
          {
            OFFSET 0 0 7.8731
          }
        }
      }
    }
  }
  JOINT LeftUpLeg
  {
    OFFSET 9.1965 3.8864 -0.7581
    CHANNELS 3 Zrotation Xrotation Yrotation
    JOINT LeftLeg
    {
      OFFSET 0.7359 -41.0268 0
      CHANNELS 3 Zrotation Xrotation Yrotation
      JOINT LeftFoot
      {
        OFFSET 0 -40.2855 0
        CHANNELS 3 Zrotation Xrotation Yrotation
        JOINT LeftToeBase
        {
          OFFSET 0 -5.6122 11.7359
          CHANNELS 3 Zrotation Xrotation Yrotation
          End Site
          {
            OFFSET 0 0 7.8731
          }
        }
      }
    }
  }
}
MOTION
Frames:	6
Frame Time:	0.0333333
2.31647 2.46257 6.71834 0.645985 -48.0242 -1.50211 0.547103 6.40452 -0.731044 1.18823 12.8012 -1.53861 1.18823 12.8012 -1.53861 0.426058 26.8819 13.5623 15.0235 0.473835 13.7788 11.0025 6.9905 -4.71155e-005 -111.3 29.7841 35.1757 0.94157 -52.8748 -3.2565 62.9967 -0.00358058 -18.0012 8.45187e-007 -8.45569e-007 -4.35413e-007 3.97569e-016 -1.59028e-015 -7.95139e-016 8.45187e-007 -8.45569e-007 -4.35413e-007 8.45187e-007 -8.45569e-007 -4.35413e-007 -0.0146076 -8.90681e-005 2.91628e-007 8.45168e-007 -8.45513e-007 -4.35521e-007 8.45187e-007 -8.45569e-007 -4.35413e-007 -0.0187594 -0.00117696 6.07176e-005 8.45158e-007 -8.45499e-007 -4.3556e-007 8.45187e-007 -8.45569e-007 -4.35413e-007 -0.0122821 -0.00325157 0.000677385 8.45154e-007 -8.45531e-007 -4.35527e-007 8.45187e-007 -8.45569e-007 -4.35413e-007 3.97569e-016 -1.59028e-015 -7.95139e-016 8.45187e-007 -8.45569e-007 -4.35413e-007 -11.0058 6.99084 -0.00323553 111.294 29.783 -35.176 -0.949302 -52.8749 3.24877 -63.0008 -0.00237139 17.9982 6.50874e-008 -8.34665e-007 1.56781e-007 -1.72804e-006 2.66065e-008 7.17247e-007 6.50874e-008 -8.34665e-007 1.56781e-007 6.50874e-008 -8.34665e-007 1.56781e-007 0.0149947 -9.23094e-005 2.33838e-006 6.50952e-008 -8.34645e-007 1.56891e-007 6.50874e-008 -8.34665e-007 1.56781e-007 0.0190048 -0.00119128 -5.68765e-005 6.50992e-008 -8.3464e-007 1.56919e-007 6.50874e-008 -8.34665e-007 1.56781e-007 0.0122813 -0.00325081 -0.000677905 6.51031e-008 -8.3465e-007 1.56869e-007 6.50874e-008 -8.34665e-007 1.56781e-007 -1.72804e-006 2.66065e-008 7.17247e-007 6.50874e-008 -8.34665e-007 1.56781e-007 -102.083 -40.1493 -92.3508 -154.704 72.8135 152.302 23.9174 20.6245 -1.39672 -2.06736e-014 -3.18055e-015 -3.18055e-015 38.0717 -32.6433 31.9671 9.98708 16.5961 27.6574 -24.537 28.8843 -1.74165 -3.18055e-015 0 -2.38542e-015 
2.31655 2.46267 6.71835 0.645985 -48.0242 -1.50211 0.547104 6.40452 -0.731049 1.18823 12.8012 -1.53861 1.18823 12.8012 -1.53861 0.422053 26.9588 13.4828 14.8426 0.541244 13.7106 11.0025 6.9905 -4.69859e-005 -111.3 29.7841 35.1757 0.941568 -52.8748 -3.2565 62.9967 -0.00358083 -18.0012 9.07188e-007 3.77835e-008 -7.89223e-007 -3.25098e-008 -8.48205e-007 -7.02933e-008 8.77697e-007 2.63685e-009 -3.6512e-007 9.07188e-007 3.77835e-008 -7.89223e-007 -0.0146051 -9.00132e-005 3.99759e-007 8.77685e-007 2.68332e-009 -3.6512e-007 9.07188e-007 3.77835e-008 -7.89223e-007 -0.0187584 -0.00117759 5.77392e-005 8.77679e-007 2.69529e-009 -3.65129e-007 9.07188e-007 3.77835e-008 -7.89223e-007 -0.0122821 -0.00325401 0.000675902 8.77677e-007 2.66835e-009 -3.65144e-007 9.07188e-007 3.77835e-008 -7.89223e-007 -3.25098e-008 -8.48205e-007 -7.02933e-008 8.77697e-007 2.63685e-009 -3.6512e-007 -11.0058 6.99084 -0.00323541 111.294 29.783 -35.176 -0.949315 -52.8749 3.24876 -63.0008 -0.00237259 17.9982 6.50874e-008 -8.34665e-007 1.56781e-007 -2.98229e-006 -4.43065e-007 1.23795e-006 6.50874e-008 -8.34665e-007 1.56781e-007 6.50874e-008 -8.34665e-007 1.56781e-007 0.0149811 -9.0013e-005 7.72221e-007 6.50952e-008 -8.34645e-007 1.56891e-007 6.50874e-008 -8.34665e-007 1.56781e-007 0.019012 -0.00119142 -5.74371e-005 6.50992e-008 -8.3464e-007 1.56919e-007 6.50874e-008 -8.34665e-007 1.56781e-007 0.0122708 -0.00324898 -0.000673915 6.5103e-008 -8.3465e-007 1.56869e-007 6.50874e-008 -8.34665e-007 1.56781e-007 -2.98229e-006 -4.43065e-007 1.23795e-006 6.50874e-008 -8.34665e-007 1.56781e-007 -102.111 -39.9875 -92.4716 -154.702 72.8149 152.302 23.9192 20.6254 -1.39582 -6.94707e-007 -1.22855e-006 -2.88779e-006 38.0717 -32.6434 31.9671 9.98709 16.5964 27.6573 -24.5371 28.8841 -1.74168 -1.66915e-006 6.5197e-007 -2.72797e-006 
2.31663 2.46277 6.71837 0.645985 -48.0242 -1.50211 0.547104 6.40452 -0.731049 1.18823 12.8012 -1.53861 1.18823 12.8012 -1.53861 0.418212 27.035 13.4033 14.6618 0.608894 13.6426 11.0025 6.9905 -4.69859e-005 -111.3 29.7841 35.1757 0.941568 -52.8748 -3.2565 62.9967 -0.00358083 -18.0012 9.07188e-007 3.77835e-008 -7.89223e-007 -3.25098e-008 -8.48205e-007 -7.02933e-008 8.77697e-007 2.63685e-009 -3.6512e-007 9.07188e-007 3.77835e-008 -7.89223e-007 -0.0146051 -9.00132e-005 3.99759e-007 8.77685e-007 2.68331e-009 -3.6512e-007 9.07188e-007 3.77835e-008 -7.89223e-007 -0.0187584 -0.00117759 5.77392e-005 8.77679e-007 2.69529e-009 -3.65129e-007 9.07188e-007 3.77835e-008 -7.89223e-007 -0.0122821 -0.00325401 0.000675902 8.77677e-007 2.66835e-009 -3.65144e-007 9.07188e-007 3.77835e-008 -7.89223e-007 -3.25098e-008 -8.48205e-007 -7.02933e-008 8.77697e-007 2.63685e-009 -3.6512e-007 -11.0058 6.99084 -0.00323541 111.294 29.783 -35.176 -0.949315 -52.8749 3.24876 -63.0008 -0.00237259 17.9982 6.50874e-008 -8.34665e-007 1.56781e-007 -2.98229e-006 -4.43065e-007 1.23795e-006 6.50874e-008 -8.34665e-007 1.56781e-007 6.50874e-008 -8.34665e-007 1.56781e-007 0.0149811 -9.0013e-005 7.72221e-007 6.50952e-008 -8.34645e-007 1.56891e-007 6.50874e-008 -8.34665e-007 1.56781e-007 0.019012 -0.00119142 -5.74371e-005 6.50992e-008 -8.3464e-007 1.56919e-007 6.50874e-008 -8.34665e-007 1.56781e-007 0.0122708 -0.00324898 -0.000673915 6.5103e-008 -8.3465e-007 1.56869e-007 6.50874e-008 -8.34665e-007 1.56781e-007 -2.98229e-006 -4.43065e-007 1.23795e-006 6.50874e-008 -8.34665e-007 1.56781e-007 -102.137 -39.8257 -92.5919 -154.699 72.8162 152.302 23.9211 20.6263 -1.39493 -3.77661e-006 -9.63459e-008 5.85206e-006 38.0718 -32.6435 31.9671 9.98711 16.5968 27.6572 -24.5371 28.8839 -1.74173 -7.53668e-007 2.03475e-007 7.95967e-006 
2.3167 2.46287 6.71839 0.645985 -48.0242 -1.50211 0.547104 6.40452 -0.731049 1.18823 12.8012 -1.53861 1.18823 12.8012 -1.53861 0.41449 27.1112 13.3238 14.481 0.67679 13.5747 11.0025 6.9905 -4.69826e-005 -111.3 29.7841 35.1757 0.941568 -52.8748 -3.2565 62.9967 -0.00358083 -18.0012 9.07188e-007 3.77835e-008 -7.89223e-007 -3.25098e-008 -8.48205e-007 -7.02933e-008 8.77697e-007 2.63685e-009 -3.6512e-007 9.07188e-007 3.77835e-008 -7.89223e-007 -0.0146051 -9.00132e-005 3.99759e-007 8.77685e-007 2.68332e-009 -3.6512e-007 9.07188e-007 3.77835e-008 -7.89223e-007 -0.0187584 -0.00117759 5.77392e-005 8.77679e-007 2.69529e-009 -3.65129e-007 9.07188e-007 3.77835e-008 -7.89223e-007 -0.0122821 -0.00325401 0.000675902 8.77677e-007 2.66834e-009 -3.65144e-007 9.07188e-007 3.77835e-008 -7.89223e-007 -3.25098e-008 -8.48205e-007 -7.02933e-008 8.77697e-007 2.63685e-009 -3.6512e-007 -11.0058 6.99084 -0.00323583 111.294 29.783 -35.176 -0.949315 -52.8749 3.24876 -63.0008 -0.00237259 17.9982 6.50874e-008 -8.34665e-007 1.56781e-007 -2.98229e-006 -4.43065e-007 1.23795e-006 6.50874e-008 -8.34665e-007 1.56781e-007 6.50874e-008 -8.34665e-007 1.56781e-007 0.0149811 -9.0013e-005 7.72221e-007 6.50952e-008 -8.34645e-007 1.56891e-007 6.50874e-008 -8.34665e-007 1.56781e-007 0.019012 -0.00119142 -5.74371e-005 6.50992e-008 -8.3464e-007 1.56919e-007 6.50874e-008 -8.34665e-007 1.56781e-007 0.0122708 -0.00324898 -0.000673915 6.5103e-008 -8.3465e-007 1.56869e-007 6.50874e-008 -8.34665e-007 1.56781e-007 -2.98229e-006 -4.43065e-007 1.23795e-006 6.50874e-008 -8.34665e-007 1.56781e-007 -102.163 -39.6638 -92.712 -154.697 72.8176 152.301 23.9229 20.6273 -1.39405 4.1597e-006 9.51688e-007 2.80118e-006 38.0718 -32.6435 31.9671 9.98712 16.597 27.6572 -24.5372 28.8836 -1.74175 -1.82482e-006 2.07608e-006 -9.20138e-008 
2.31678 2.46297 6.7184 0.645985 -48.0242 -1.50211 0.547104 6.40452 -0.731049 1.18823 12.8012 -1.53861 1.18823 12.8012 -1.53861 0.41087 27.1874 13.2442 14.3001 0.744919 13.5071 11.0025 6.9905 -4.69859e-005 -111.3 29.7841 35.1757 0.941568 -52.8748 -3.2565 62.9967 -0.00358083 -18.0012 9.07188e-007 3.77835e-008 -7.89223e-007 -3.25098e-008 -8.48205e-007 -7.02933e-008 8.77697e-007 2.63685e-009 -3.6512e-007 9.07188e-007 3.77835e-008 -7.89223e-007 -0.0146051 -9.00132e-005 3.99759e-007 8.77685e-007 2.68331e-009 -3.6512e-007 9.07188e-007 3.77835e-008 -7.89223e-007 -0.0187584 -0.00117759 5.77392e-005 8.77679e-007 2.69529e-009 -3.65129e-007 9.07188e-007 3.77835e-008 -7.89223e-007 -0.0122821 -0.00325401 0.000675902 8.77677e-007 2.66835e-009 -3.65144e-007 9.07188e-007 3.77835e-008 -7.89223e-007 -3.25098e-008 -8.48205e-007 -7.02933e-008 8.77697e-007 2.63685e-009 -3.6512e-007 -11.0058 6.99084 -0.00323541 111.294 29.783 -35.176 -0.949315 -52.8749 3.24876 -63.0008 -0.00237259 17.9982 6.50874e-008 -8.34665e-007 1.56781e-007 -2.98229e-006 -4.43065e-007 1.23795e-006 6.50874e-008 -8.34665e-007 1.56781e-007 6.50874e-008 -8.34665e-007 1.56781e-007 0.0149811 -9.0013e-005 7.72221e-007 6.50952e-008 -8.34645e-007 1.56891e-007 6.50874e-008 -8.34665e-007 1.56781e-007 0.019012 -0.00119142 -5.74371e-005 6.50992e-008 -8.3464e-007 1.56919e-007 6.50874e-008 -8.34665e-007 1.56781e-007 0.0122708 -0.00324898 -0.000673915 6.5103e-008 -8.3465e-007 1.56869e-007 6.50874e-008 -8.34665e-007 1.56781e-007 -2.98229e-006 -4.43065e-007 1.23795e-006 6.50874e-008 -8.34665e-007 1.56781e-007 -102.189 -39.5019 -92.8315 -154.695 72.819 152.301 23.9247 20.6282 -1.39316 5.75891e-006 2.31303e-006 -1.40418e-006 38.0718 -32.6436 31.9671 9.98714 16.5973 27.6571 -24.5373 28.8834 -1.74179 4.00787e-007 2.26715e-006 -2.48724e-007 
2.31686 2.46308 6.71842 0.645985 -48.0242 -1.50211 0.547103 6.40452 -0.731048 1.18823 12.8012 -1.53861 1.18823 12.8012 -1.53861 0.407373 27.2635 13.1645 14.1193 0.813295 13.4396 11.0025 6.9905 -4.68103e-005 -111.3 29.7841 35.1757 0.941575 -52.8748 -3.2565 62.9967 -0.00358181 -18.0012 9.07188e-007 3.77835e-008 -7.89223e-007 -3.25097e-008 -8.48205e-007 -7.02933e-008 8.77697e-007 2.63691e-009 -3.6512e-007 9.07188e-007 3.77835e-008 -7.89223e-007 -0.0146051 -9.00145e-005 4.00104e-007 8.77685e-007 2.68337e-009 -3.6512e-007 9.07188e-007 3.77835e-008 -7.89223e-007 -0.0187593 -0.00117848 5.84585e-005 8.77679e-007 2.69535e-009 -3.65129e-007 9.07188e-007 3.77835e-008 -7.89223e-007 -0.0122807 -0.00325286 0.000676266 8.77677e-007 2.6684e-009 -3.65144e-007 9.07188e-007 3.77835e-008 -7.89223e-007 -3.25097e-008 -8.48205e-007 -7.02933e-008 8.77697e-007 2.63691e-009 -3.6512e-007 -11.0058 6.99084 -0.00323556 111.294 29.783 -35.176 -0.949306 -52.8749 3.24876 -63.0008 -0.00237078 17.9982 6.50874e-008 -8.34665e-007 1.56782e-007 -1.72804e-006 2.66067e-008 7.17247e-007 6.50874e-008 -8.34665e-007 1.56782e-007 6.50874e-008 -8.34665e-007 1.56782e-007 0.0149955 -9.15007e-005 1.18068e-006 -7.82262e-007 -9.65897e-007 3.24278e-007 6.50874e-008 -8.34665e-007 1.56782e-007 0.0189981 -0.00119045 -5.93276e-005 6.50992e-008 -8.3464e-007 1.56919e-007 6.50874e-008 -8.34665e-007 1.56782e-007 0.0122676 -0.00324752 -0.000678793 6.51031e-008 -8.3465e-007 1.56869e-007 6.50874e-008 -8.34665e-007 1.56782e-007 -1.72804e-006 2.66067e-008 7.17247e-007 6.50874e-008 -8.34665e-007 1.56782e-007 -102.214 -39.3399 -92.9508 -154.692 72.8203 152.301 23.9265 20.6292 -1.39226 -2.56645e-006 3.85206e-007 -6.99904e-006 38.0717 -32.6436 31.9671 9.98715 16.5975 27.6571 -24.5373 28.8833 -1.74181 -2.42898e-006 1.61526e-006 -9.92708e-007 
